<svg width="152" height="161" viewBox="0 0 152 161" fill="none" xmlns="http://www.w3.org/2000/svg">
<path d="M129.43 136.159L129.658 136.035C130.156 135.758 130.661 135.496 131.179 135.247L131.366 135.164L131.954 134.929L132.189 134.846L132.77 134.687C133.012 134.645 133.26 134.617 133.502 134.569C132.41 134.797 133.254 134.611 133.565 134.569H133.613C133.516 134.569 133.496 134.569 133.744 134.569C133.804 134.577 133.865 134.577 133.924 134.569H133.772L134.464 134.638L134.858 134.728C135.079 134.79 135.3 134.859 135.549 134.936C135.66 134.97 135.769 135.011 135.874 135.06H135.95L136.095 135.143C136.987 135.631 137.764 136.302 138.377 137.113C139.363 138.681 140 140.443 140.244 142.278C140.97 146.122 141.129 150.174 143.832 153.258C144.219 153.7 145.533 153.645 145.975 153.624C147.088 153.561 148.184 153.328 149.225 152.933C150.013 152.615 152.682 151.55 151.645 150.354C149.031 147.367 149.19 142.748 148.361 139.098C147.99 137.148 147.129 135.326 145.858 133.802C144.24 131.976 141.82 131.16 139.449 130.946C133.406 130.4 127.397 132.93 122.357 136.035C118.44 138.578 114.721 141.414 111.232 144.518L108.688 146.676L107.43 147.727L107.146 147.962L106.51 148.48C104.788 149.863 103.053 151.246 101.179 152.449C100.751 152.739 100.315 153.016 99.8794 153.285C99.6581 153.424 99.4369 153.562 99.188 153.693L99.0082 153.797C98.0886 154.316 97.0999 154.71 96.1803 155.18L95.4129 155.477L94.7215 155.726C94.279 155.857 93.8226 155.954 93.3732 156.079H93.2972C93.0137 156.134 92.7233 156.176 92.4398 156.224L92.2047 156.258C91.8825 156.329 91.5506 156.346 91.223 156.307C91.223 156.307 91.8314 156.307 91.4235 156.307H91.0017C90.6698 156.307 90.3103 156.252 90.0061 156.21L89.529 156.106C89.2179 156.03 88.9137 155.934 88.6094 155.83C88.1191 155.648 87.6543 155.404 87.2266 155.104C85.431 153.826 84.1491 151.951 83.6106 149.815C82.1448 144.684 84.3504 139.444 86.6389 134.929C91.5617 125.18 98.8077 116.835 105.964 108.655C113.389 100.199 121.071 91.9785 128.365 83.3981C131.981 79.139 135.508 74.797 138.84 70.3029C142.173 65.8087 145.332 61.3699 147.725 56.4056C151.61 48.3231 154.466 33.6653 142.753 30.7544C139.897 30.1387 136.976 29.8763 134.056 29.9732C131.164 30.0375 128.282 30.3404 125.441 30.8789C119.481 31.9623 113.676 33.7711 108.155 36.265C98.0817 40.69 88.7961 47.0716 80.2434 53.8889C71.7473 60.5715 64.0475 68.2087 57.2956 76.65C51.2113 84.3039 45.6662 92.4141 39.3537 99.8605C36.2831 103.552 32.9512 107.018 29.3836 110.232C28.9549 110.612 28.5262 110.985 28.0906 111.352L27.7864 111.607L27.5375 111.815L27.4407 111.891L27.0328 112.223C26.0648 112.99 25.0761 113.737 24.0667 114.449C23.0572 115.161 21.9924 115.832 20.9208 116.523L20.5681 116.717L19.8007 117.125L19.1093 117.464C18.9503 117.52 18.7956 117.587 18.646 117.664L17.9546 117.899L17.5536 118.01L17.1872 118.065C17.0143 118.065 16.8069 118.065 16.6271 118.065H16.3091C16.0947 118.065 15.8873 118.024 15.6799 117.996L15.1544 117.885C13.1856 117.495 11.4274 116.398 10.2109 114.802C8.7935 112.845 8.57225 110.197 8.82807 107.888C9.1624 105.379 9.70354 102.902 10.446 100.483C13.1148 91.0312 17.7126 82.1812 23.3061 74.1194C28.8996 66.0576 35.703 58.5351 42.707 51.5381C46.2331 48.005 49.8492 44.5618 53.4998 41.167C57.1505 37.7722 60.9394 34.253 63.8709 30.1045C66.6365 26.2257 68.5725 22.0012 68.8145 17.196C69.0894 13.1304 67.889 9.10196 65.4335 5.84999C62.1631 1.61167 56.7287 0.609135 51.6953 0.768159C46.0257 0.94101 40.3769 2.32382 35.0324 4.05925C25.451 7.17477 16.6886 12.3958 9.38811 19.3393C6.04094 22.5685 3.06975 26.166 0.531194 30.063C0.199319 30.5747 0.925295 30.9688 1.2226 31.0725C2.09898 31.2694 3.00814 31.2694 3.88451 31.0725C5.57155 30.7683 7.72873 30.2013 8.72436 28.6802C11.2419 24.9072 14.1963 21.4446 17.526 18.3644C18.3787 17.5716 19.2499 16.8042 20.1395 16.0621L20.4575 15.8062L21.1489 15.2462C21.6191 14.8798 22.1031 14.5202 22.5871 14.1676C23.5089 13.4854 24.4654 12.8286 25.4564 12.1971C25.9196 11.8929 26.3967 11.5956 26.8738 11.3121L27.503 10.9318L27.8694 10.7244C28.8789 10.1367 29.9229 9.61124 30.9531 9.10652C31.4509 8.85761 31.9556 8.62253 32.4672 8.41511L33.1033 8.13164L33.4006 8.00718C34.4654 7.55777 35.5509 7.14292 36.6433 6.76265L37.4938 6.47226H37.556C38.0746 6.31324 38.5862 6.15421 39.1117 6.00902C39.6371 5.86382 40.1833 5.71863 40.7226 5.58035L41.6007 5.37292L41.7528 5.33144C42.8867 5.13093 44.0137 4.88894 45.1546 4.723L45.9428 4.61238H46.2608C46.9522 4.55015 47.6021 4.50867 48.2797 4.48792H48.5217C48.8536 4.48792 49.2131 4.48792 49.5242 4.53632L50.3678 4.61238L50.7619 4.66769L51.0384 4.723C53.0925 5.11471 54.9964 6.0726 56.5351 7.48863C57.842 8.79637 58.8411 10.3788 59.4598 12.121C60.8378 15.8704 60.9278 19.972 59.7156 23.7782C58.2221 28.4037 55.2767 32.2617 51.9856 35.7187C48.5701 39.3141 44.8158 42.5913 41.2274 46.0207C33.9391 52.8267 27.1135 60.1119 20.7963 67.8276C14.6359 75.523 9.15994 83.8614 5.32955 92.9741C3.40377 97.4886 1.93975 102.186 0.959866 106.996C0.468967 109.485 0.102522 112.195 0.81467 114.677C1.4579 116.857 2.90314 118.713 4.8594 119.87C10.0519 122.953 16.8276 121.896 22.1446 119.676C27.337 117.505 31.928 114.145 36.1732 110.474C43.4537 104.168 49.4274 96.5625 55.1938 88.9155C61.0846 81.0957 66.8371 73.1376 73.6612 66.0991C81.2115 58.3781 89.5914 51.5146 98.6487 45.6335C99.7503 44.9006 100.863 44.1862 101.988 43.4901C102.527 43.1514 103.074 42.7987 103.62 42.4945L104.311 42.0728L105.003 41.6856C107.298 40.3857 109.649 39.1689 112.055 38.0764L112.712 37.7791H112.746L112.857 37.7238L112.988 37.6823L113.113 37.6201C113.735 37.3574 114.364 37.1016 115 36.8596C115.637 36.6176 116.176 36.4101 116.763 36.1682L117.586 35.8778L118.008 35.7395C119.211 35.4145 120.393 35.0481 121.603 34.7369L122.295 34.571L122.564 34.5157C123.219 34.3866 123.876 34.2691 124.535 34.1631L125.524 34.0179L126.16 33.9349L126.623 33.8934C126.955 33.8612 127.287 33.8335 127.619 33.8105C128.241 33.769 128.856 33.7344 129.478 33.7206H130.405H130.875C132.186 33.7503 133.495 33.8496 134.795 34.0179H134.961L135.127 34.0594C135.39 34.1147 135.653 34.1631 135.915 34.2322C136.566 34.3842 137.202 34.5924 137.817 34.8545C142.18 36.8112 143.03 42.294 142.726 46.6637C142.373 51.7663 140.257 56.6822 137.748 61.0726C135.015 65.6796 131.961 70.0879 128.607 74.2646C121.783 83.0801 114.309 91.3562 106.863 99.6323C99.4161 107.908 91.9697 115.97 85.5258 124.91C82.2563 129.296 79.4503 134.009 77.1528 138.973C75.1201 143.537 73.6958 148.992 75.853 153.776C76.7739 155.936 78.4229 157.705 80.5131 158.775C83.2488 159.969 86.2628 160.379 89.2179 159.958C94.7582 159.307 100.099 157.495 104.892 154.641C108.874 152.205 112.638 149.429 116.141 146.344C117.814 144.961 119.474 143.509 121.161 142.112L121.437 141.884L122.129 141.345C122.578 140.985 123.028 140.653 123.512 140.273C124.383 139.582 125.268 138.939 126.174 138.31C127.079 137.68 127.985 137.072 128.939 136.498L129.43 136.159ZM118.07 35.7187H118.112H118.07Z" fill="white"/>
</svg>
