<svg width="122" height="124" viewBox="0 0 122 124" fill="none" xmlns="http://www.w3.org/2000/svg">
<path d="M101.337 66.1692C101.337 73.3201 99.2169 80.3104 95.2441 86.2561C91.2712 92.2019 85.6245 96.8361 79.0179 99.5726C72.4113 102.309 65.1417 103.025 58.1282 101.63C51.1146 100.235 44.6723 96.7915 39.6159 91.735C34.5594 86.6786 31.1159 80.2363 29.7209 73.2228C28.3258 66.2093 29.0418 58.9396 31.7783 52.333C34.5149 45.7264 39.149 40.0797 45.0948 36.1069C51.0405 32.134 58.0308 30.0136 65.1818 30.0136C69.9299 30.013 74.6317 30.9479 79.0185 32.7647C83.4053 34.5815 87.3913 37.2447 90.7488 40.6022C94.1062 43.9596 96.7694 47.9456 98.5862 52.3324C100.403 56.7192 101.338 61.421 101.337 66.1692Z" fill="black"/>
<path d="M95.6553 57.1311C95.6553 64.282 93.5348 71.2723 89.5619 77.2181C85.5891 83.1638 79.9424 87.798 73.3358 90.5345C66.7292 93.271 59.4595 93.987 52.446 92.592C45.4325 91.1969 38.9902 87.7534 33.9337 82.697C28.8773 77.6405 25.4338 71.1982 24.0387 64.1847C22.6437 57.1712 23.3597 49.9015 26.0962 43.2949C28.8327 36.6883 33.4669 31.0416 39.4126 27.0688C45.3584 23.096 52.3487 20.9755 59.4996 20.9755C64.2478 20.975 68.9496 21.9098 73.3364 23.7266C77.7232 25.5434 81.7092 28.2066 85.0666 31.5641C88.4241 34.9215 91.0873 38.9075 92.9041 43.2943C94.7209 47.6812 95.6558 52.3829 95.6553 57.1311Z" fill="#F28544"/>
<path d="M58.1843 31.9846C57.7894 31.9836 57.3982 32.0606 57.0332 32.2113C56.6682 32.3619 56.3365 32.5832 56.0573 32.8625C55.778 33.1417 55.5567 33.4734 55.4061 33.8384C55.2554 34.2034 55.1784 34.5946 55.1794 34.9895V37.223C49.0075 38.4419 45.5358 42.9705 46.0566 48.6834C46.4423 52.7722 49.3547 56.7261 56.5874 59.542C64.0746 62.6087 62.0071 67.7275 57.5556 67.7275C54.4696 67.7275 50.6624 66.3851 48.6102 65.2472C44.7528 63.3184 42.2532 70.3389 47.48 73.2127C49.4396 74.3198 52.2015 75.1414 55.1948 75.5272V77.8416C55.1948 78.6386 55.5114 79.4029 56.075 79.9664C56.6385 80.53 57.4028 80.8466 58.1998 80.8466C58.9967 80.8466 59.761 80.53 60.3246 79.9664C60.8881 79.4029 61.2047 78.6386 61.2047 77.8416V75.5272C68.5917 74.6168 72.4144 70.2194 71.8242 63.9125C71.342 58.7512 68.0555 55.133 61.5094 52.5177C53.7715 49.3777 54.6047 44.8028 59.7157 44.8028C62.5317 44.8028 65.2473 45.8752 66.9368 46.7315C70.7673 48.4597 73.8802 42.1335 68.0941 38.9665C65.9214 37.9191 63.5817 37.2611 61.1816 37.0224V34.9818C61.1826 34.5867 61.1056 34.1953 60.955 33.8301C60.8044 33.4648 60.5831 33.1329 60.3039 32.8534C60.0248 32.5738 59.6931 32.3522 59.3281 32.2011C58.963 32.05 58.5717 31.9725 58.1766 31.973L58.1843 31.9846Z" fill="white"/>
<path d="M64.1479 0.0374942C55.2987 -0.23092 46.4956 1.41001 38.3374 4.84862C30.1792 8.28724 22.8574 13.4428 16.8703 19.9647C10.8831 26.4865 6.37109 34.2215 3.64116 42.6433C0.911218 51.0652 0.0274478 59.9762 1.04998 68.7702C2.07251 77.5642 4.97735 86.0348 9.56685 93.6056C14.1563 101.176 20.3228 107.67 27.6466 112.644C34.9705 117.618 43.2799 120.956 52.0094 122.431C60.7389 123.906 69.6837 123.483 78.2352 121.191C105.156 113.978 121.191 89.5142 121.191 61.6444C121.191 58.0763 120.173 55.1832 117.465 55.1832C114.534 55.1832 113.743 58.0763 113.743 61.6444C113.743 83.7281 96.2262 102.996 74.8908 108.705C67.1503 110.781 59.0171 110.916 51.2119 109.098C43.4068 107.279 36.1706 103.564 30.1446 98.2805C24.1185 92.9972 19.4886 86.3091 16.6651 78.8088C13.8416 71.3085 12.9116 63.2275 13.9576 55.2819C15.0035 47.3363 17.9931 39.7713 22.6615 33.2573C27.3298 26.7432 33.5328 21.4811 40.7209 17.9373C47.9089 14.3935 55.8601 12.6773 63.8699 12.9408C71.8798 13.2043 79.701 15.4394 86.6405 19.448C87.376 19.8975 88.194 20.1952 89.0463 20.3237C89.8987 20.4522 90.7681 20.4089 91.6034 20.1963C92.4387 19.9837 93.223 19.6061 93.9102 19.0857C94.5974 18.5653 95.1735 17.9127 95.6046 17.1663C96.0357 16.4199 96.3131 15.5948 96.4205 14.7396C96.5278 13.8844 96.463 13.0163 96.2298 12.1865C95.9965 11.3567 95.5996 10.5819 95.0624 9.90786C94.5252 9.23379 93.8586 8.67402 93.1017 8.26152C84.2785 3.16648 74.3283 0.341924 64.144 0.0413554L64.1479 0.0374942Z" fill="white"/>
<path d="M87.0263 5.18325C86.6174 7.66358 86.2548 10.0243 85.8266 10.7804C85.2519 11.7794 82.1929 14.0322 79.7473 16.1538C82.1269 17.0717 84.4316 18.1731 86.6405 19.448C87.376 19.8975 88.194 20.1952 89.0464 20.3237C89.8987 20.4522 90.7681 20.4089 91.6034 20.1963C92.4388 19.9836 93.2231 19.606 93.9102 19.0857C94.5974 18.5653 95.1735 17.9127 95.6046 17.1663C96.0357 16.4199 96.3131 15.5948 96.4205 14.7396C96.5279 13.8843 96.463 13.0162 96.2298 12.1864C95.9966 11.3566 95.5997 10.5819 95.0624 9.90782C94.5252 9.23375 93.8586 8.67398 93.1017 8.26148C91.1326 7.12122 89.1018 6.09099 87.0186 5.17554L87.0263 5.18325Z" fill="black"/>
<path d="M79.6971 22.5532C78.6556 20.748 87.8286 14.8384 88.8701 13.0254C89.9116 11.2124 90.4516 0.315186 92.5346 0.315186C94.6177 0.315186 99.8059 8.53921 100.847 10.3445C101.889 12.1498 106.414 20.7595 105.372 22.5571C104.331 24.3546 94.6177 24.7404 92.5346 24.7404C90.4516 24.7404 80.7386 24.3546 79.6971 22.5571V22.5532Z" fill="white"/>
</svg>
