<svg width="165" height="165" viewBox="0 0 165 165" fill="none" xmlns="http://www.w3.org/2000/svg">
<path d="M98.1518 121.871L93.3565 119.473C89.8399 117.717 87.6562 114.183 87.6562 110.251V108.281C87.6562 104.427 89.809 101.099 92.9491 99.3274C92.8898 98.8788 92.8125 98.4354 92.8125 97.9688V87.6562C92.8125 76.2841 102.065 67.0312 113.438 67.0312V25.7812H94.5321C86.723 25.7812 79.1227 23.2495 72.8759 18.5625L61.875 10.3125L50.8741 18.5625C44.6273 23.2495 37.027 25.7812 29.2179 25.7812H10.3125V97.4763C10.3125 113.778 18.8641 128.883 32.8427 137.27C32.8427 137.267 61.875 154.688 61.875 154.688L90.9073 137.267C94.7745 134.947 98.2059 132.098 101.176 128.868C99.5955 126.813 98.5462 124.428 98.1518 121.871Z" fill="#333333" fill-opacity="0.85"/>
<path d="M92.9492 99.3274C92.8899 98.8788 92.8125 98.4354 92.8125 97.9688V87.6562C92.8125 82.8893 94.4548 78.5065 97.1799 75.0105C93.7303 58.673 79.2387 46.4062 61.875 46.4062C41.9409 46.4062 25.7812 62.5659 25.7812 82.5C25.7812 102.434 41.9409 118.594 61.875 118.594C72.0019 118.594 81.1413 114.409 87.6975 107.691C87.9063 104.092 89.9714 101.006 92.9492 99.3274Z" fill="white"/>
<path d="M43.1552 137.267C29.1766 128.88 20.625 113.775 20.625 97.4763V25.7812H10.3125V97.4763C10.3125 113.778 18.8641 128.883 32.8427 137.27L61.875 154.688L67.0312 151.594L43.1552 137.267Z" fill="#333333"/>
<path d="M74.7656 103.125H48.9844C47.5613 103.125 46.4062 101.97 46.4062 100.547V79.9219C46.4062 78.4988 47.5613 77.3438 48.9844 77.3438H74.7656C76.1887 77.3438 77.3438 78.4988 77.3438 79.9219V100.547C77.3438 101.97 76.1887 103.125 74.7656 103.125Z" fill="#F28544"/>
<path d="M51.5625 100.547V79.9219C51.5625 78.4988 52.7175 77.3438 54.1406 77.3438H48.9844C47.5613 77.3438 46.4062 78.4988 46.4062 79.9219V100.547C46.4062 101.97 47.5613 103.125 48.9844 103.125H54.1406C52.7175 103.125 51.5625 101.97 51.5625 100.547Z" fill="#DC9600"/>
<path d="M54.1406 77.3438V69.6094C54.1406 66.7605 56.448 64.4531 59.2969 64.4531H64.4531C67.302 64.4531 69.6094 66.7605 69.6094 69.6094V77.3438H72.1875V69.6094C72.1875 65.3374 68.7251 61.875 64.4531 61.875H59.2969C55.0249 61.875 51.5625 65.3374 51.5625 69.6094V77.3438H54.1406Z" fill="#505050"/>
<path d="M67.0312 87.6562C67.0312 84.8074 64.7238 82.5 61.875 82.5C59.0262 82.5 56.7188 84.8074 56.7188 87.6562C56.7188 89.5589 57.7629 91.2037 59.2969 92.0984V95.3906C59.2969 96.8137 60.4519 97.9688 61.875 97.9688C63.2981 97.9688 64.4531 96.8137 64.4531 95.3906V92.0984C65.9871 91.2037 67.0312 89.5589 67.0312 87.6562Z" fill="#BE7800"/>
<path d="M154.688 154.688H92.8125V151.834C92.8125 149.879 93.9159 148.095 95.6639 147.221L113.438 139.219L123.75 149.531L134.062 139.219L151.836 147.221C153.584 148.095 154.688 149.879 154.688 151.834V154.688Z" fill="#F28544"/>
<path d="M105.976 147.221L116.64 142.421L113.438 139.219L95.6639 147.221C93.9159 148.095 92.8125 149.879 92.8125 151.834V154.688H103.125V151.834C103.125 149.879 104.228 148.095 105.976 147.221Z" fill="#DC4632"/>
<path d="M113.438 139.219V128.022H134.062V139.219L123.75 149.531L113.438 139.219Z" fill="#D2AA82"/>
<path d="M149.531 103.125H144.375V87.6562C144.375 84.8074 142.068 82.5 139.219 82.5H108.281C105.432 82.5 103.125 84.8074 103.125 87.6562V103.125H97.9688C95.1199 103.125 92.8125 105.432 92.8125 108.281V110.251C92.8125 112.205 93.9159 113.989 95.6639 114.863L103.125 118.594V119.478C103.125 122.213 104.21 124.835 106.147 126.769L110.419 131.041C112.352 132.975 114.977 134.062 117.709 134.062H129.791C132.526 134.062 135.148 132.977 137.081 131.041L141.353 126.769C143.287 124.835 144.375 122.211 144.375 119.478V118.594L151.836 114.863C153.584 113.989 154.688 112.203 154.688 110.251V108.281C154.688 105.432 152.38 103.125 149.531 103.125Z" fill="#F0C8A0"/>
<path d="M149.531 108.281C143.836 108.281 139.219 103.664 139.219 97.9688V82.5H144.375C147.224 82.5 149.531 84.8074 149.531 87.6562V108.281Z" fill="#DC9600"/>
<path d="M134.062 72.1875H113.438C104.894 72.1875 97.9688 79.1123 97.9688 87.6562V97.9688C97.9688 100.818 100.276 103.125 103.125 103.125H123.75C135.14 103.125 144.375 93.8902 144.375 82.5C144.375 76.8049 139.758 72.1875 134.062 72.1875Z" fill="#F28544"/>
<path d="M118.594 109.57H108.281C107.57 109.57 106.992 108.993 106.992 108.281C106.992 107.57 107.57 106.992 108.281 106.992H118.594C119.305 106.992 119.883 107.57 119.883 108.281C119.883 108.993 119.305 109.57 118.594 109.57Z" fill="#BE7800"/>
<path d="M116.016 113.438C117.439 113.438 118.594 112.283 118.594 110.859C118.594 109.436 117.439 108.281 116.016 108.281C114.592 108.281 113.438 109.436 113.438 110.859C113.438 112.283 114.592 113.438 116.016 113.438Z" fill="#BE7800"/>
<path d="M139.219 109.57H128.906C128.195 109.57 127.617 108.993 127.617 108.281C127.617 107.57 128.195 106.992 128.906 106.992H139.219C139.93 106.992 140.508 107.57 140.508 108.281C140.508 108.993 139.93 109.57 139.219 109.57Z" fill="#BE7800"/>
<path d="M131.484 113.438C132.908 113.438 134.062 112.283 134.062 110.859C134.062 109.436 132.908 108.281 131.484 108.281C130.061 108.281 128.906 109.436 128.906 110.859C128.906 112.283 130.061 113.438 131.484 113.438Z" fill="#BE7800"/>
<path d="M123.75 125.039C122.028 125.039 120.409 124.369 119.192 123.152L117.681 121.644C117.178 121.141 117.178 120.324 117.681 119.821C118.184 119.318 119.001 119.318 119.504 119.821L121.015 121.329C122.474 122.788 125.024 122.788 126.483 121.329L127.994 119.821C128.496 119.318 129.314 119.318 129.816 119.821C130.319 120.324 130.319 121.141 129.816 121.644L128.306 123.152C127.091 124.369 125.472 125.039 123.75 125.039Z" fill="#BE7800"/>
</svg>
